name Walk5.mot
datacolumns 19
datarows 25
range 1.77300000 1.79700000
endheader

                time	   L_ground_force_vx	   L_ground_force_vy	   L_ground_force_vz	   L_ground_force_px	   L_ground_force_py	   L_ground_force_pz	   R_ground_force_vx	   R_ground_force_vy	   R_ground_force_vz	   R_ground_force_px	   R_ground_force_py	   R_ground_force_pz	   L_ground_torque_x	   L_ground_torque_y	   L_ground_torque_z	   R_ground_torque_x	   R_ground_torque_y	   R_ground_torque_z	
          1.77300000	        -20.32419313	        364.32608081	        -28.94259689	          0.56701537	          0.00000000	          0.06327885	          0.00000000	          0.00000000	          0.00000000	          0.00000000	          0.00000000	          0.00000000	          0.00000000	          1.64920454	          0.00000000	          0.00000000	          0.00000000	          0.00000000	
          1.77400000	        -20.11632034	        363.14318662	        -28.64744593	          0.56772780	          0.00000000	          0.06328255	          0.00000000	          0.00000000	          0.00000000	          0.00000000	          0.00000000	          0.00000000	          0.00000000	          1.59617854	          0.00000000	          0.00000000	          0.00000000	          0.00000000	
          1.77500000	        -19.90353099	        362.03984684	        -28.35978109	          0.56847670	          0.00000000	          0.06324430	          0.00000000	          0.00000000	          0.00000000	          0.00000000	          0.00000000	          0.00000000	          0.00000000	          1.53395379	          0.00000000	          0.00000000	          0.00000000	          0.00000000	
          1.77600000	        -19.67667326	        361.03394697	        -28.06376538	          0.56929288	          0.00000000	          0.06318206	          0.00000000	          0.00000000	          0.00000000	          0.00000000	          0.00000000	          0.00000000	          0.00000000	          1.46965385	          0.00000000	          0.00000000	          0.00000000	          0.00000000	
          1.77700000	        -19.43041310	        360.10324731	        -27.75574369	          0.57017041	          0.00000000	          0.06309199	          0.00000000	          0.00000000	          0.00000000	          0.00000000	          0.00000000	          0.00000000	          0.00000000	          1.41085337	          0.00000000	          0.00000000	          0.00000000	          0.00000000	
          1.77800000	        -19.16532204	        359.24797141	        -27.44695337	          0.57101458	          0.00000000	          0.06299475	          0.00000000	          0.00000000	          0.00000000	          0.00000000	          0.00000000	          0.00000000	          0.00000000	          1.36181686	          0.00000000	          0.00000000	          0.00000000	          0.00000000	
          1.77900000	        -18.88463940	        358.52246486	        -27.14738578	          0.57168799	          0.00000000	          0.06295187	          0.00000000	          0.00000000	          0.00000000	          0.00000000	          0.00000000	          0.00000000	          0.00000000	          1.32169205	          0.00000000	          0.00000000	          0.00000000	          0.00000000	
          1.78000000	        -18.59274907	        357.97470452	        -26.85354976	          0.57213497	          0.00000000	          0.06301423	          0.00000000	          0.00000000	          0.00000000	          0.00000000	          0.00000000	          0.00000000	          0.00000000	          1.28587371	          0.00000000	          0.00000000	          0.00000000	          0.00000000	
          1.78100000	        -18.29813334	        357.58614145	        -26.55453636	          0.57243324	          0.00000000	          0.06316472	          0.00000000	          0.00000000	          0.00000000	          0.00000000	          0.00000000	          0.00000000	          0.00000000	          1.24972440	          0.00000000	          0.00000000	          0.00000000	          0.00000000	
          1.78200000	        -18.01748495	        357.29499662	        -26.24503974	          0.57271475	          0.00000000	          0.06333737	          0.00000000	          0.00000000	          0.00000000	          0.00000000	          0.00000000	          0.00000000	          0.00000000	          1.21042261	          0.00000000	          0.00000000	          0.00000000	          0.00000000	
          1.78300000	        -17.77043473	        357.06413798	        -25.93148416	          0.57306658	          0.00000000	          0.06347585	          0.00000000	          0.00000000	          0.00000000	          0.00000000	          0.00000000	          0.00000000	          0.00000000	          1.16613964	          0.00000000	          0.00000000	          0.00000000	          0.00000000	
          1.78400000	        -17.56652928	        356.88689985	        -25.62845350	          0.57350598	          0.00000000	          0.06354455	          0.00000000	          0.00000000	          0.00000000	          0.00000000	          0.00000000	          0.00000000	          0.00000000	          1.11498460	          0.00000000	          0.00000000	          0.00000000	          0.00000000	
          1.78500000	        -17.39814168	        356.73688032	        -25.35283180	          0.57400304	          0.00000000	          0.06351932	          0.00000000	          0.00000000	          0.00000000	          0.00000000	          0.00000000	          0.00000000	          0.00000000	          1.05512304	          0.00000000	          0.00000000	          0.00000000	          0.00000000	
          1.78600000	        -17.23917069	        356.56666764	        -25.12411171	          0.57454412	          0.00000000	          0.06340090	          0.00000000	          0.00000000	          0.00000000	          0.00000000	          0.00000000	          0.00000000	          0.00000000	          0.98728175	          0.00000000	          0.00000000	          0.00000000	          0.00000000	
          1.78700000	        -17.05281635	        356.36985172	        -24.96603755	          0.57517437	          0.00000000	          0.06322940	          0.00000000	          0.00000000	          0.00000000	          0.00000000	          0.00000000	          0.00000000	          0.00000000	          0.91582393	          0.00000000	          0.00000000	          0.00000000	          0.00000000	
          1.78800000	        -16.81280687	        356.20463750	        -24.89868759	          0.57590169	          0.00000000	          0.06306710	          0.00000000	          0.00000000	          0.00000000	          0.00000000	          0.00000000	          0.00000000	          0.00000000	          0.84370959	          0.00000000	          0.00000000	          0.00000000	          0.00000000	
          1.78900000	        -16.51572914	        356.12320388	        -24.92436167	          0.57661468	          0.00000000	          0.06294069	          0.00000000	          0.00000000	          0.00000000	          0.00000000	          0.00000000	          0.00000000	          0.00000000	          0.76785087	          0.00000000	          0.00000000	          0.00000000	          0.00000000	
          1.79000000	        -16.17795403	        356.10822002	        -25.01411893	          0.57719554	          0.00000000	          0.06281768	          0.00000000	          0.00000000	          0.00000000	          0.00000000	          0.00000000	          0.00000000	          0.00000000	          0.68377709	          0.00000000	          0.00000000	          0.00000000	          0.00000000	
          1.79100000	        -15.83219781	        356.11313617	        -25.10717307	          0.57763825	          0.00000000	          0.06266705	          0.00000000	          0.00000000	          0.00000000	          0.00000000	          0.00000000	          0.00000000	          0.00000000	          0.59605941	          0.00000000	          0.00000000	          0.00000000	          0.00000000	
          1.79200000	        -15.51473714	        356.12819162	        -25.14658456	          0.57800787	          0.00000000	          0.06251424	          0.00000000	          0.00000000	          0.00000000	          0.00000000	          0.00000000	          0.00000000	          0.00000000	          0.52012259	          0.00000000	          0.00000000	          0.00000000	          0.00000000	
          1.79300000	        -15.24869012	        356.18128030	        -25.11860264	          0.57835785	          0.00000000	          0.06242017	          0.00000000	          0.00000000	          0.00000000	          0.00000000	          0.00000000	          0.00000000	          0.00000000	          0.47017379	          0.00000000	          0.00000000	          0.00000000	          0.00000000	
          1.79400000	        -15.04723394	        356.30930679	        -25.03961433	          0.57870653	          0.00000000	          0.06242173	          0.00000000	          0.00000000	          0.00000000	          0.00000000	          0.00000000	          0.00000000	          0.00000000	          0.44784623	          0.00000000	          0.00000000	          0.00000000	          0.00000000	
          1.79500000	        -14.91868667	        356.55079819	        -24.92626982	          0.57906091	          0.00000000	          0.06249623	          0.00000000	          0.00000000	          0.00000000	          0.00000000	          0.00000000	          0.00000000	          0.00000000	          0.44145150	          0.00000000	          0.00000000	          0.00000000	          0.00000000	
          1.79600000	        -14.85514143	        356.93387077	        -24.79560469	          0.57943752	          0.00000000	          0.06257410	          0.00000000	          0.00000000	          0.00000000	          0.00000000	          0.00000000	          0.00000000	          0.00000000	          0.43267645	          0.00000000	          0.00000000	          0.00000000	          0.00000000	
          1.79700000	        -14.82749773	        357.44161775	        -24.66753095	          0.57984453	          0.00000000	          0.06258833	          0.00000000	          0.00000000	          0.00000000	          0.00000000	          0.00000000	          0.00000000	          0.00000000	          0.40954645	          0.00000000	          0.00000000	          0.00000000	          0.00000000	
